<?xml version="1.0" encoding="UTF-8"?>
<svg xmlns="http://www.w3.org/2000/svg" id="Layer_1" data-name="Layer 1" viewBox="0 0 24 24" width="512" height="512"><path d="M20.24,7.95L6.18,22.11c-.93,.93-2.32,1.12-3.45,.58l-1.02,1.02c-.2,.2-.45,.29-.71,.29s-.51-.1-.71-.29c-.39-.39-.39-1.02,0-1.41l1.02-1.02c-.54-1.13-.36-2.52,.58-3.46L14.39,5.26c-1.09-.43-2.42-.23-3.28,.63l-3.03,3.03c-.2,.2-.45,.29-.71,.29s-.51-.1-.71-.29c-.39-.39-.39-1.02,0-1.41l3.03-3.03c.94-.94,2.2-1.46,3.54-1.46,1.19,0,2.3,.43,3.19,1.18,.04,0,3.81,3.76,3.81,3.76ZM22.84,.65c-1.18-.97-3-.84-4.13,.3l-1.33,1.33,4.27,4.27,1.42-1.42c.6-.6,.92-1.44,.88-2.29-.04-.85-.45-1.65-1.11-2.19Z"/></svg>
